HIERARCHY
ROOT Elbow
{
	OFFSET	0.00	0.00	0.00
	CHANNELS 6 Xposition Yposition Zposition Zrotation Xrotation Yrotation
	JOINT L_Wrist
	{
		OFFSET	 0.208349	 0.000000	 0.000000
		CHANNELS 3 Zrotation Xrotation Yrotation
		JOINT L_index_Proximal
		{
			OFFSET	 0.093499	 0.010637	-0.002084
			CHANNELS 3 Zrotation Xrotation Yrotation
			JOINT L_index_b
			{
				OFFSET	 0.033152	 0.000000	 0.000000
				CHANNELS 3 Zrotation Xrotation Yrotation
				JOINT L_index_c
				{
					OFFSET	 0.018651	 0.000000	 0.000000
					CHANNELS 3 Zrotation Xrotation Yrotation
					End Site
					{
						OFFSET	 0.018651	 0.000000	 0.000000
					}
				}
			}
		}
		JOINT L_middle_Proximal
		{
			OFFSET	 0.090632	-0.006115	-0.003750
			CHANNELS 3 Zrotation Xrotation Yrotation
			JOINT L_middle_b
			{
				OFFSET	 0.037195	 0.000000	 0.000000
				CHANNELS 3 Zrotation Xrotation Yrotation
				JOINT L_middle_c
				{
					OFFSET	 0.021943	 0.000000	 0.000000
					CHANNELS 3 Zrotation Xrotation Yrotation
					End Site
					{
						OFFSET	 0.021943	 0.000000	 0.000000
					}
				}
			}
		}
		JOINT L_pinky_Proximal
		{
			OFFSET	 0.074015	-0.035449	-0.000417
			CHANNELS 3 Zrotation Xrotation Yrotation
			JOINT L_pinky_b
			{
				OFFSET	 0.027285	 0.000000	 0.000000
				CHANNELS 3 Zrotation Xrotation Yrotation
				JOINT L_pinky_c
				{
					OFFSET	 0.015093	 0.000000	 0.000000
					CHANNELS 3 Zrotation Xrotation Yrotation
					End Site
					{
						OFFSET	 0.015093	 0.000000	 0.000000
					}
				}
			}
		}
		JOINT L_ring_Proximal
		{
			OFFSET	 0.082801	-0.021859	-0.003750
			CHANNELS 3 Zrotation Xrotation Yrotation
			JOINT L_ring_b
			{
				OFFSET	 0.034478	 0.000000	 0.000000
				CHANNELS 3 Zrotation Xrotation Yrotation
				JOINT L_ring_c
				{
					OFFSET	 0.021377	 0.000000	 0.000000
					CHANNELS 3 Zrotation Xrotation Yrotation
					End Site
					{
						OFFSET	 0.021377	 0.000000	 0.000000
					}
				}
			}
		}
		JOINT L_thumb_Proximal
		{
			OFFSET	 0.030306	 0.018528	 0.004584
			CHANNELS 3 Zrotation Xrotation Yrotation
			JOINT L_thumb_a
			{
				OFFSET	 0.038520	 0.000000	 0.000000
				CHANNELS 3 Zrotation Xrotation Yrotation
				JOINT L_thumb_b
				{
					OFFSET	 0.026310	 0.000000	 0.000000
					CHANNELS 3 Zrotation Xrotation Yrotation
					End Site
					{
						OFFSET	 0.026310	 0.000000	 0.000000
					}
				}
			}
		}
	}
}
MOTION
Frames:    15
Frame Time: 0.01666667
 0.954027	-0.110155	 0.629324	-85.227070	 40.416520	 174.305500	-4.163858	 2.029385	 11.593000	 7.252217	-1.407393	-12.459130	-0.823604	 0.088584	-12.278260	-0.411272	 0.028334	-7.881177	-14.481840	-4.212406	-74.600280	-5.311998	 4.499335	-80.518750	-1.211391	 0.453527	-41.049220	-33.678120	-15.698030	-60.332690	-5.648373	 3.926192	-69.583900	-1.336505	 0.704417	-55.582050	-21.817920	-8.931331	-71.437770	-2.156706	 1.753141	-78.211740	 3.361304	-1.354990	-43.900590	 79.939640	 39.450370	-56.093640	 10.704080	 0.143387	 1.530536	 1.384988	-0.065880	-5.446913
 0.954580	-0.110344	 0.629491	-85.260990	 40.256940	 174.318600	-4.147800	 2.024678	 11.565680	 7.331215	-1.417695	-12.396930	-0.802496	 0.086138	-12.252390	-0.420279	 0.029000	-7.894324	-14.473160	-4.218172	-74.625120	-5.288789	 4.477908	-80.496410	-1.199235	 0.449389	-41.084030	-33.640820	-15.732530	-60.191340	-5.624271	 3.914664	-69.656000	-1.415905	 0.745570	-55.537540	-21.792410	-8.952143	-71.445530	-2.118369	 1.722056	-78.214430	 3.339383	-1.345384	-43.878120	 79.963730	 39.542970	-55.938740	 10.611550	 0.132293	 1.424482	 1.376273	-0.067566	-5.619813
 0.954537	-0.110539	 0.629462	-85.237280	 40.288130	 174.289000	-4.126298	 2.023144	 11.556960	 7.335902	-1.416844	-12.372490	-0.826861	 0.089360	-12.336390	-0.403514	 0.028024	-7.946283	-14.488120	-4.208011	-74.583720	-5.309666	 4.493512	-80.470400	-1.221526	 0.457157	-41.036140	-33.636130	-15.739470	-60.139310	-5.591720	 3.889205	-69.617390	-1.380935	 0.727768	-55.577700	-21.793110	-8.954221	-71.384990	-2.125604	 1.727237	-78.191830	 3.329208	-1.340288	-43.848430	 79.857150	 39.528470	-56.057900	 10.609550	 0.122992	 1.324591	 1.387613	-0.067406	-5.561536
 0.954449	-0.110598	 0.629481	-85.240390	 40.301320	 174.282900	-4.114537	 2.021110	 11.545100	 7.323583	-1.414677	-12.373290	-0.842828	 0.091464	-12.386320	-0.411301	 0.028779	-8.005645	-14.503480	-4.196600	-74.555380	-5.336088	 4.513829	-80.444630	-1.244808	 0.465630	-41.016250	-33.640970	-15.737930	-60.119930	-5.576370	 3.876338	-69.587230	-1.353502	 0.713804	-55.610310	-21.792770	-8.956939	-71.331350	-2.142318	 1.740162	-78.170250	 3.324099	-1.337514	-43.827330	 79.775150	 39.504080	-56.168580	 10.629950	 0.118218	 1.270913	 1.391935	-0.067645	-5.562825
 0.954292	-0.110764	 0.629497	-85.229230	 40.312400	 174.267900	-4.083005	 2.018955	 11.532570	 7.343306	-1.417744	-12.366400	-0.835660	 0.091075	-12.439650	-0.412527	 0.028955	-8.029250	-14.528440	-4.173722	-74.563580	-5.345488	 4.524834	-80.482750	-1.233635	 0.461912	-41.053790	-33.632490	-15.738130	-60.186370	-5.551117	 3.863103	-69.647740	-1.291193	 0.681538	-55.652270	-21.793840	-8.956412	-71.321110	-2.145182	 1.743580	-78.205470	 3.306409	-1.331164	-43.850410	 79.677880	 39.438680	-56.352870	 10.712500	 0.121469	 1.295584	 1.405463	-0.067295	-5.481741
 0.954210	-0.110838	 0.629545	-85.256770	 40.331750	 174.244300	-4.046525	 2.018109	 11.527610	 7.317956	-1.415758	-12.408980	-0.849625	 0.093017	-12.495570	-0.431433	 0.030342	-8.045296	-14.541130	-4.160161	-74.589790	-5.324661	 4.510573	-80.525180	-1.217998	 0.456653	-41.103510	-33.647390	-15.715000	-60.361520	-5.554126	 3.872442	-69.747990	-1.222336	 0.645376	-55.665920	-21.808230	-8.942118	-71.367900	-2.148073	 1.748579	-78.290660	 3.297446	-1.327468	-43.848000	 79.685540	 39.386640	-56.420940	 10.736460	 0.128037	 1.362493	 1.349190	-0.064050	-5.435998
 0.954291	-0.110759	 0.629614	-85.276200	 40.335860	 174.235200	-4.024409	 2.016523	 11.518410	 7.313851	-1.416606	-12.428050	-0.846277	 0.092754	-12.509340	-0.429770	 0.030214	-8.043932	-14.527230	-4.171397	-74.607980	-5.302716	 4.491637	-80.520790	-1.189968	 0.446039	-41.094250	-33.654230	-15.704450	-60.445530	-5.546146	 3.865794	-69.733160	-1.207460	 0.637593	-55.671310	-21.811950	-8.938273	-71.391140	-2.147495	 1.748626	-78.306920	 3.306342	-1.330949	-43.844750	 79.682310	 39.373540	-56.442070	 10.736540	 0.130715	 1.390904	 1.306827	-0.061785	-5.413652
 0.954088	-0.110726	 0.629741	-85.310010	 40.335700	 174.242500	-3.998717	 2.013931	 11.503500	 7.303835	-1.414984	-12.430940	-0.837749	 0.091827	-12.510180	-0.421988	 0.029627	-8.032775	-14.516390	-4.179523	-74.627950	-5.301033	 4.491341	-80.535060	-1.184179	 0.443875	-41.094230	-33.656380	-15.697880	-60.514140	-5.551530	 3.868773	-69.722470	-1.223207	 0.645764	-55.660660	-21.812750	-8.935758	-71.433860	-2.141164	 1.744506	-78.340250	 3.303171	-1.330116	-43.857960	 79.679860	 39.357400	-56.467490	 10.725400	 0.129072	 1.374886	 1.278790	-0.061170	-5.476691
 0.954173	-0.110605	 0.629856	-85.333190	 40.295570	 174.228400	-3.958813	 2.009955	 11.480340	 7.355893	-1.424166	-12.416990	-0.819517	 0.089545	-12.470660	-0.413472	 0.028902	-7.997542	-14.445110	-4.245703	-74.598550	-5.244869	 4.443030	-80.526050	-1.144058	 0.428948	-41.104480	-33.663720	-15.686610	-60.605720	-5.516945	 3.841360	-69.676260	-1.189394	 0.627573	-55.634200	-21.796970	-8.949369	-71.435090	-2.113187	 1.720853	-78.312490	 3.333236	-1.342203	-43.857440	 79.610610	 39.332330	-56.566490	 10.714780	 0.121346	 1.293888	 1.256131	-0.060399	-5.504851
 0.954079	-0.110602	 0.629987	-85.348130	 40.240050	 174.218800	-3.909432	 2.009912	 11.480110	 7.348846	-1.421919	-12.408120	-0.826937	 0.090824	-12.535630	-0.414071	 0.029162	-8.058314	-14.473640	-4.221991	-74.572720	-5.285015	 4.479053	-80.551380	-1.142282	 0.428942	-41.162650	-33.706760	-15.650160	-60.715640	-5.507356	 3.833691	-69.662270	-1.190554	 0.628242	-55.638960	-21.801940	-8.945693	-71.417150	-2.120219	 1.726546	-78.311450	 3.337234	-1.344176	-43.867950	 79.467190	 39.310840	-56.731560	 10.770240	 0.119373	 1.266327	 1.277219	-0.060349	-5.411121
 0.953888	-0.110789	 0.630070	-85.355080	 40.221880	 174.210800	-3.878003	 2.007939	 11.468660	 7.357252	-1.423202	-12.404040	-0.812071	 0.089414	-12.566100	-0.420169	 0.029658	-8.076049	-14.485430	-4.211541	-74.572450	-5.268249	 4.466632	-80.574010	-1.123496	 0.422496	-41.217500	-33.726620	-15.630940	-60.798540	-5.512049	 3.838178	-69.679590	-1.168951	 0.617142	-55.662200	-21.808100	-8.940000	-71.430010	-2.114779	 1.722596	-78.326920	 3.329480	-1.342123	-43.899630	 79.438100	 39.268240	-56.819890	 10.789650	 0.115577	 1.223736	 1.282736	-0.061219	-5.464719
 0.953694	-0.110959	 0.630130	-85.363110	 40.199040	 174.203300	-3.860569	 2.007531	 11.466370	 7.351431	-1.421981	-12.403860	-0.811145	 0.089638	-12.612440	-0.430554	 0.030523	-8.108860	-14.506000	-4.193069	-74.572400	-5.245252	 4.447671	-80.580890	-1.122881	 0.422549	-41.242910	-33.729850	-15.625340	-60.841880	-5.489750	 3.823654	-69.693730	-1.157895	 0.611401	-55.670060	-21.806910	-8.940269	-71.442180	-2.089994	 1.702603	-78.333500	 3.329749	-1.342597	-43.910170	 79.455340	 39.243890	-56.839050	 10.817450	 0.120692	 1.274552	 1.269248	-0.060373	-5.445205
 0.953604	-0.111297	 0.630215	-85.363080	 40.133760	 174.166200	-3.802812	 2.014089	 11.504220	 7.294528	-1.415549	-12.462760	-0.812960	 0.090091	-12.647340	-0.444602	 0.031512	-8.106981	-14.512180	-4.182818	-74.635220	-5.203284	 4.412724	-80.589260	-1.113237	 0.419263	-41.272990	-33.754420	-15.611810	-60.813770	-5.510354	 3.841877	-69.748080	-1.219584	 0.643585	-55.640190	-21.829690	-8.920932	-71.452290	-2.086901	 1.699584	-78.316800	 3.300284	-1.331147	-43.923210	 79.469620	 39.234150	-56.839450	 10.841260	 0.124955	 1.316621	 1.281160	-0.060517	-5.408267
 0.953658	-0.111326	 0.630355	-85.390550	 40.060130	 174.191900	-3.771445	 2.016811	 11.520130	 7.298641	-1.417552	-12.481250	-0.802561	 0.088940	-12.647770	-0.422361	 0.029917	-8.102013	-14.501460	-4.192122	-74.637700	-5.198624	 4.407599	-80.574200	-1.086639	 0.409176	-41.266400	-33.782330	-15.596980	-60.773230	-5.519256	 3.847279	-69.736660	-1.224940	 0.645704	-55.589090	-21.833180	-8.921252	-71.379860	-2.108822	 1.714929	-78.235120	 3.268745	-1.318714	-43.932370	 79.479060	 39.214410	-56.858920	 10.838200	 0.124464	 1.312006	 1.285958	-0.061039	-5.435591
 0.953622	-0.111350	 0.630497	-85.412610	 39.998900	 174.224600	-3.713300	 2.017736	 11.525500	 7.288701	-1.418808	-12.526890	-0.816366	 0.090550	-12.658410	-0.419487	 0.029793	-8.125280	-14.517790	-4.179452	-74.613270	-5.263598	 4.460331	-80.544170	-1.118405	 0.420448	-41.205010	-33.775720	-15.603410	-60.745210	-5.500172	 3.832385	-69.714500	-1.217137	 0.642054	-55.623150	-21.832230	-8.923652	-71.343220	-2.131637	 1.734147	-78.256580	 3.271409	-1.318367	-43.889850	 79.471530	 39.241140	-56.827890	 10.871660	 0.129800	 1.363939	 1.281547	-0.060015	-5.362482
